HIERARCHY
ROOT joint_Root
{
	OFFSET 0.0 0.0 0.0
	CHANNELS 6 Xposition Yposition Zposition Zrotation Xrotation Yrotation 
	JOINT Hips
	{
		OFFSET -17.1583 93.1646 452.98
		CHANNELS 6 Xposition Yposition Zposition Zrotation Xrotation Yrotation 
		JOINT Spine
		{
			OFFSET 15.7357 0.0 0.0
			CHANNELS 6 Xposition Yposition Zposition Zrotation Xrotation Yrotation 
			JOINT Chest
			{
				OFFSET 8.98455 -0.406207 0.0
				CHANNELS 6 Xposition Yposition Zposition Zrotation Xrotation Yrotation 
				JOINT Neck
				{
					OFFSET 16.3773 0.0 0.0
					CHANNELS 6 Xposition Yposition Zposition Zrotation Xrotation Yrotation 
					JOINT Head
					{
						OFFSET 6.45672 0.0 0.0
						CHANNELS 6 Xposition Yposition Zposition Zrotation Xrotation Yrotation 
						End Site
						{
							OFFSET 0.0 0.0 0.0
						}
					}
				}
				JOINT Shoulder_L
				{
					OFFSET 12.9942 -0.242716 4.98039
					CHANNELS 6 Xposition Yposition Zposition Zrotation Xrotation Yrotation 
					JOINT UpperArm_L
					{
						OFFSET 5.34809 0.0 0.0
						CHANNELS 6 Xposition Yposition Zposition Zrotation Xrotation Yrotation 
						JOINT LowerArm_L
						{
							OFFSET 24.3286 1.87007e-05 0.0
							CHANNELS 6 Xposition Yposition Zposition Zrotation Xrotation Yrotation 
							JOINT Hand_L
							{
								OFFSET 22.2916 0.0 0.0
								CHANNELS 6 Xposition Yposition Zposition Zrotation Xrotation Yrotation 
								End Site
								{
									OFFSET 0.0 0.0 0.0
								}
							}
						}
					}
				}
				JOINT Shoulder_R
				{
					OFFSET 12.9945 -0.242716 -4.98039
					CHANNELS 6 Xposition Yposition Zposition Zrotation Xrotation Yrotation 
					JOINT UpperArm_R
					{
						OFFSET -5.34813 0.0 0.0
						CHANNELS 6 Xposition Yposition Zposition Zrotation Xrotation Yrotation 
						JOINT LowerArm_R
						{
							OFFSET -24.3289 0.000322201 0.0
							CHANNELS 6 Xposition Yposition Zposition Zrotation Xrotation Yrotation 
							JOINT Hand_R
							{
								OFFSET -22.2915 -0.000108084 0.0
								CHANNELS 6 Xposition Yposition Zposition Zrotation Xrotation Yrotation 
								End Site
								{
									OFFSET 0.0 0.0 0.0
								}
							}
						}
					}
				}
			}
		}
		JOINT UpperLeg_L
		{
			OFFSET -2.19248 -6.46944 0.0
			CHANNELS 6 Xposition Yposition Zposition Zrotation Xrotation Yrotation 
			JOINT LowerLeg_L
			{
				OFFSET 39.0811 0.0 -1.23785e-05
				CHANNELS 6 Xposition Yposition Zposition Zrotation Xrotation Yrotation 
				JOINT Foot_L
				{
					OFFSET 40.9854 0.0 -1.26872e-05
					CHANNELS 6 Xposition Yposition Zposition Zrotation Xrotation Yrotation 
					JOINT Toes_L
					{
						OFFSET 11.7543 0.0 0.0
						CHANNELS 6 Xposition Yposition Zposition Zrotation Xrotation Yrotation 
						End Site
						{
							OFFSET 0.0 0.0 0.0
						}
					}
				}
			}
		}
		JOINT UpperLeg_R
		{
			OFFSET -2.19251 6.46944 0.0
			CHANNELS 6 Xposition Yposition Zposition Zrotation Xrotation Yrotation 
			JOINT LowerLeg_R
			{
				OFFSET -39.0811 -0.00228153 -0.0401928
				CHANNELS 6 Xposition Yposition Zposition Zrotation Xrotation Yrotation 
				JOINT Foot_R
				{
					OFFSET -40.9854 0.0 0.0
					CHANNELS 6 Xposition Yposition Zposition Zrotation Xrotation Yrotation 
					JOINT Toes_R
					{
						OFFSET -11.7543 0.0 0.0
						CHANNELS 6 Xposition Yposition Zposition Zrotation Xrotation Yrotation 
						End Site
						{
							OFFSET 0.0 0.0 0.0
						}
					}
				}
			}
		}
	}
}
MOTION
Frames:	4
Frame Time:	0.0333333
0.000000 0.000000 0.000000 0.000000 0.000000 -0.000000 2.112830 80.480500 419.089000 -82.601000 5.589010 167.707000 15.735700 0.000005 -0.000001 90.185800 82.677700 -86.284600 8.984550 -0.406207 -0.000000 6.889850 0.017908 7.792790 16.377300 -0.000001 -0.000001 -4.870270 4.681700 -1.846970 6.456720 -0.000001 -0.000000 -5.232330 6.319160 -8.429260 12.994200 -0.242716 4.980390 -93.068200 9.399090 -71.829000 5.348090 -0.000007 -0.000001 -64.568500 -20.873000 14.696500 24.328600 0.000019 0.000005 36.543400 26.115200 -59.293200 22.291600 -0.000001 0.000005 43.853500 4.257630 20.424600 12.994500 -0.242716 -4.980390 88.854000 4.357330 -75.248900 -5.348130 -0.000001 -0.000004 -72.266100 5.287010 -8.130380 -24.328900 0.000322 -0.000009 -2.158810 -2.263190 -43.768400 -22.291500 -0.000108 -0.000004 52.807300 5.354560 -1.516970 -2.192480 -6.469440 -0.000000 -173.704000 -4.540480 -34.596200 39.081100 -0.000007 -0.000012 0.134692 0.007272 93.086300 40.985400 -0.000006 -0.000013 -3.132280 -0.102624 -40.169400 11.754300 -0.000000 0.000003 0.001494 0.030836 -15.325900 -2.192510 6.469440 -0.000001 -168.625000 4.478460 150.490000 -39.081100 -0.002282 -0.040193 0.006444 -0.001803 60.976700 -40.985400 0.000008 0.000006 -3.842320 1.507330 -96.523500 -11.754300 -0.000006 -0.000006 -0.001987 0.196225 -8.612300
0.000000 0.000000 0.000000 0.000000 0.000000 -0.000000 2.017210 81.715200 412.097000 -85.012300 3.911180 167.754000 15.735700 0.000005 -0.000001 96.138900 82.958900 -93.094800 8.984550 -0.406207 -0.000000 6.205340 1.460420 6.002460 16.377300 -0.000001 -0.000001 -4.888110 3.331770 -1.301530 6.456720 -0.000001 -0.000000 -5.051630 3.729960 -7.783410 12.994200 -0.242716 4.980390 -92.904300 8.732710 -71.523000 5.348090 -0.000007 -0.000001 -58.373800 -24.928800 19.154500 24.328600 0.000019 0.000005 36.235800 25.042900 -59.989300 22.291600 -0.000001 0.000005 46.733000 4.174000 21.700000 12.994500 -0.242716 -4.980390 88.806300 4.580060 -75.375000 -5.348130 -0.000001 -0.000004 -71.819200 7.681000 -9.040300 -24.328900 0.000322 -0.000009 -0.156129 -0.093650 -59.940900 -22.291500 -0.000108 -0.000004 53.267900 5.361210 -1.717950 -2.192480 -6.469440 -0.000000 -175.815000 -2.191610 -43.078200 39.081100 -0.000007 -0.000012 0.058910 0.003866 93.744600 40.985400 -0.000006 -0.000013 -2.633540 -2.534660 -50.613400 11.754300 -0.000000 0.000003 0.002194 0.055002 -14.345800 -2.192510 6.469440 -0.000001 -172.127000 7.536440 158.476000 -39.081100 -0.002282 -0.040193 0.017350 -0.010046 54.570700 -40.985400 0.000008 0.000006 -4.965440 3.629890 -95.808600 -11.754300 -0.000006 -0.000006 0.000777 0.153364 -10.353500
0.000000 0.000000 0.000000 0.000000 0.000000 -0.000000 1.655010 84.118200 404.614000 -88.439400 1.612680 166.754000 15.735700 0.000005 -0.000001 99.795500 83.566200 -97.944600 8.984550 -0.406207 -0.000000 4.884830 2.138420 3.606540 16.377300 -0.000001 -0.000001 -5.032960 1.933880 -0.718062 6.456720 -0.000001 -0.000000 -4.494620 1.235040 -6.727270 12.994200 -0.242716 4.980390 -92.381800 7.241660 -71.739700 5.348090 -0.000007 -0.000001 -53.466200 -25.982300 22.959700 24.328600 0.000019 0.000005 37.902300 24.940600 -61.558600 22.291600 -0.000001 0.000005 48.104600 4.079670 23.082100 12.994500 -0.242716 -4.980390 88.868100 4.358590 -75.426800 -5.348130 -0.000001 -0.000004 -70.481100 9.422500 -9.674190 -24.328900 0.000322 -0.000009 3.270250 1.015190 -72.681100 -22.291500 -0.000108 -0.000004 53.674200 5.386030 -2.488280 -2.192480 -6.469440 -0.000000 -179.144000 0.863762 -48.874200 39.081100 -0.000007 -0.000012 -0.020430 0.001044 87.099300 40.985400 -0.000006 -0.000013 -3.131750 -6.822810 -60.466400 11.754300 -0.000000 0.000003 0.001552 0.032403 -15.262300 -2.192510 6.469440 -0.000001 -176.496000 10.311100 167.022000 -39.081100 -0.002282 -0.040193 0.027228 -0.024667 44.168100 -40.985400 0.000008 0.000006 -6.310060 4.340090 -89.574800 -11.754300 -0.000006 -0.000006 0.002031 0.047866 -14.631600
0.000000 0.000000 0.000000 0.000000 0.000000 -0.000000 1.074310 87.065300 396.871000 -92.366700 -0.480030 164.618000 15.735700 0.000005 -0.000001 104.063000 84.513500 -103.668000 8.984550 -0.406207 -0.000000 2.871800 2.646930 0.722784 16.377300 -0.000001 -0.000001 -5.003140 0.263656 -0.022134 6.456720 -0.000001 -0.000000 -3.690020 -1.194750 -5.438040 12.994200 -0.242716 4.980390 -91.636800 5.109870 -72.212400 5.348090 -0.000007 -0.000001 -50.885800 -25.025900 25.887100 24.328600 0.000019 0.000005 38.498600 23.797500 -63.101300 22.291600 -0.000001 0.000005 48.115700 3.999090 24.241800 12.994500 -0.242716 -4.980390 89.274600 2.807510 -75.507300 -5.348130 -0.000001 -0.000004 -71.481300 9.224570 -9.184030 -24.328900 0.000322 -0.000009 7.328020 1.301640 -79.979400 -22.291500 -0.000108 -0.000004 54.003000 5.423070 -3.697460 -2.192480 -6.469440 -0.000000 177.189000 3.897420 -51.983600 39.081100 -0.000007 -0.000012 -0.046444 0.013012 74.356200 40.985400 -0.000006 -0.000013 -4.264080 -8.624550 -66.761200 11.754300 -0.000000 0.000003 0.002319 0.061973 -14.063100 -2.192510 6.469440 -0.000001 179.277000 11.974600 174.046000 -39.081100 -0.002282 -0.040193 0.030605 -0.042183 32.919700 -40.985400 0.000008 0.000006 -6.568800 2.043100 -77.206400 -11.754300 -0.000006 -0.000006 -0.016737 -0.148494 -22.634500
